<svg xmlns="http://www.w3.org/2000/svg" viewBox="0 0 512 512">
  <defs>
    <radialGradient id="bgGlow" cx="52%" cy="72%" r="55%">
      <stop offset="0%" stop-color="#123b32"/>
      <stop offset="45%" stop-color="#081412"/>
      <stop offset="100%" stop-color="#030405"/>
    </radialGradient>

    <linearGradient id="ribbonMain" x1="80" y1="360" x2="430" y2="105" gradientUnits="userSpaceOnUse">
      <stop offset="0%" stop-color="#0b6072"/>
      <stop offset="42%" stop-color="#10d6d7"/>
      <stop offset="72%" stop-color="#b9ffd1"/>
      <stop offset="100%" stop-color="#e9ffe9"/>
    </linearGradient>

    <linearGradient id="ribbonShadow" x1="80" y1="300" x2="390" y2="390" gradientUnits="userSpaceOnUse">
      <stop offset="0%" stop-color="#073943"/>
      <stop offset="55%" stop-color="#0fb8a9"/>
      <stop offset="100%" stop-color="#8cff87"/>
    </linearGradient>

    <radialGradient id="dotGrad" cx="35%" cy="30%" r="70%">
      <stop offset="0%" stop-color="#f2ffe7"/>
      <stop offset="45%" stop-color="#9dff80"/>
      <stop offset="100%" stop-color="#2ee66f"/>
    </radialGradient>

    <filter id="softGlow" x="-40%" y="-40%" width="180%" height="180%">
      <feGaussianBlur stdDeviation="7" result="blur"/>
      <feColorMatrix in="blur" type="matrix"
        values="0 0 0 0 0.12
                0 0 0 0 0.95
                0 0 0 0 0.78
                0 0 0 0.72 0" result="glow"/>
      <feMerge>
        <feMergeNode in="glow"/>
        <feMergeNode in="SourceGraphic"/>
      </feMerge>
    </filter>

    <filter id="dotGlow" x="-80%" y="-80%" width="260%" height="260%">
      <feGaussianBlur stdDeviation="10" result="blur"/>
      <feColorMatrix in="blur" type="matrix"
        values="0 0 0 0 0.35
                0 0 0 0 1
                0 0 0 0 0.35
                0 0 0 0.9 0"/>
      <feMerge>
        <feMergeNode/>
        <feMergeNode in="SourceGraphic"/>
      </feMerge>
    </filter>
  </defs>

  <rect width="512" height="512" rx="112" fill="url(#bgGlow)"/>

  <!-- faint lower body, gives it the 3D ribbon feel -->
  <path d="M98 327
           C150 385 237 404 326 340
           C380 302 409 256 422 205
           C385 259 323 314 244 330
           C184 342 136 339 98 327Z"
        fill="url(#ribbonShadow)"
        opacity="0.42"
        filter="url(#softGlow)"/>

  <!-- main sweeping path -->
  <path d="M88 331
           C154 191 289 126 421 141
           C340 159 252 213 177 302
           C142 343 113 356 88 331Z"
        fill="url(#ribbonMain)"
        filter="url(#softGlow)"/>

  <!-- inner bright trace line -->
  <path d="M170 306
           C235 219 326 162 421 141"
        fill="none"
        stroke="#dffff1"
        stroke-width="9"
        stroke-linecap="round"
        opacity="0.9"
        filter="url(#softGlow)"/>

  <!-- endpoint -->
  <circle cx="358" cy="337" r="29" fill="url(#dotGrad)" filter="url(#dotGlow)"/>
</svg>
